HIERARCHY
ROOT Hips
{
	OFFSET 0.000000 0.000000 0.000000 
	CHANNELS 6 Xposition Yposition Zposition Yrotation Zrotation Xrotation 
	JOINT Lumbar
	{
		OFFSET 0.000000 0.000000 0.000000 
		CHANNELS 3 Zrotation Xrotation Yrotation
		JOINT Neck
		{
			OFFSET 0.000000 0.445665 0.000000 
			CHANNELS 3 Zrotation Xrotation Yrotation
			End Site
			{
				OFFSET 0.000000 0.227535 0.000000 
			}
		}
		JOINT RightShoulder
		{
			OFFSET 0.019635 0.377685 0.194865 
			CHANNELS 3 Zrotation Xrotation Yrotation
			JOINT RightElbow
			{
				OFFSET 0.000000 -0.243375 0.000000 
				CHANNELS 2 Zrotation Yrotation
				JOINT RightWrist
				{
					OFFSET 0.000000 -0.264825 0.000000 
					CHANNELS 2 Zrotation Xrotation
					End Site
					{
						OFFSET 0.006600 -0.176220 0.000990 
					}
				}
			}
		}
		JOINT LeftShoulder
		{
			OFFSET 0.019635 0.377685 -0.194865 
			CHANNELS 3 Zrotation Xrotation Yrotation
			JOINT LeftElbow
			{
				OFFSET 0.000000 -0.243375 0.000000 
				CHANNELS 2 Zrotation Yrotation
				JOINT LeftWrist
				{
					OFFSET 0.000000 -0.264825 0.000000 
					CHANNELS 2 Zrotation Xrotation
					End Site
					{
						OFFSET 0.006600 -0.176220 -0.000990 
					}
				}
			}
		}
	}
	JOINT RightHip
	{
		OFFSET 0.052140 -0.069960 0.075570 
		CHANNELS 3 Zrotation Xrotation Yrotation
		JOINT RightKnee
		{
			OFFSET 0.000000 -0.402270 0.000000 
			CHANNELS 1 Zrotation
			JOINT RightAnkle
			{
				OFFSET 0.000000 -0.404085 0.000000 
				CHANNELS 3 Zrotation Xrotation Yrotation
				End Site
				{
					OFFSET 0.204105 -0.089430 0.008415 
				}
			}
		}
	}
	JOINT LeftHip
	{
		OFFSET 0.052140 -0.069960 -0.075570 
		CHANNELS 3 Zrotation Xrotation Yrotation
		JOINT LeftKnee
		{
			OFFSET 0.000000 -0.402270 0.000000 
			CHANNELS 1 Zrotation
			JOINT LeftAnkle
			{
				OFFSET 0.000000 -0.404085 0.000000 
				CHANNELS 3 Zrotation Xrotation Yrotation
				End Site
				{
					OFFSET 0.204105 -0.089430 -0.008415 
				}
			}
		}
	}
}
MOTION
Frames: 20
Frame Time: 0.02
0 0.95578 0 210.44344 0 -5.20786 8.48716 5.85848 -1.58785 -10.21775 -1.48141 -2.40114 58.71632 -12.75626 20.18356 45.00062 35.03717 13.36694 -14.76228 63.70961 14.1831 -42.29728 49.86852 -102.08003 -35.96892 5.92585 1.4431 10.58837 20.92591 -13.71207 1.71616 -3.26629 -19.10064 14.25953 0.62584 -23.88721 -29.84508 5.58879 6.27421 16.50733
-0.00159 0.9562 -0.00215 210.55333 0 -5.12863 8.78409 5.85371 -1.53818 -10.89012 -1.37933 -2.34226 59.05775 -13.23045 20.12796 46.50212 31.44622 16.96263 -14.89012 64.13765 14.66456 -41.7639 51.72049 -102.12761 -36.37423 5.91821 1.00019 10.29138 18.99116 -12.77671 1.55048 -3.53211 -16.95122 14.18719 0.29957 -23.70047 -30.56133 6.00996 6.4493 16.54924
-0.00319 0.95662 -0.00429 210.66239 0 -5.04975 9.0803 5.84887 -1.48923 -11.5609 -1.27728 -2.28379 59.39481 -13.70639 20.07089 48.00211 27.88088 20.53189 -15.01775 64.55866 15.14867 -41.22679 53.56992 -102.17113 -36.77462 5.91019 0.55776 9.99627 17.06894 -11.84416 1.38525 -3.79508 -14.81578 14.10938 -0.02371 -23.5105 -31.26484 6.42864 6.62381 16.58995
-0.0048 0.95702 -0.00638 210.76826 0 -4.97295 9.37691 5.84565 -1.44199 -12.23273 -1.17388 -2.22516 59.72869 -14.19137 20.01444 49.49613 24.39195 24.01033 -15.14507 64.96751 15.64131 -40.6756 55.41213 -102.20076 -37.15754 5.90074 0.11307 9.70702 15.18032 -10.91294 1.21963 -4.04889 -12.71583 14.01256 -0.33889 -23.30704 -31.93326 6.84339 6.79854 16.62846
-0.00635 0.95749 -0.0087 210.88995 0 -4.8869 9.67188 5.83621 -1.38487 -12.90007 -1.07705 -2.16591 60.0927 -14.62528 19.96308 51.00408 20.50918 27.94553 -15.27306 65.45513 16.08066 -40.20638 57.27432 -102.30612 -37.63077 5.89909 -0.31952 9.38822 13.11656 -9.97374 1.05536 -4.3508 -10.42856 14.02071 -0.69779 -23.17651 -32.79824 7.28126 6.97311 16.68122
-0.00803 0.95781 -0.01053 210.97878 0 -4.8193 9.96966 5.83832 -1.34927 -13.57548 -0.96681 -2.10901 60.38358 -15.16892 19.89533 52.49308 17.45586 30.92727 -15.4002 65.76589 16.63778 -39.55924 59.1048 -102.24977 -37.91405 5.8808 -0.77736 9.13119 11.42337 -9.05301 0.88891 -4.55097 -8.53931 13.80397 -0.96331 -22.89086 -33.23941 7.66822 7.14717 16.70205
-0.01009 0.95769 -0.011 210.96946 0 -4.81293 10.28642 5.88743 -1.36942 -14.29899 -0.81172 -2.0487 60.54795 -16.02498 19.82901 53.87038 16.75441 31.12294 -15.52392 65.65725 17.50109 -38.42495 60.79242 -101.74351 -37.6502 5.81565 -1.31934 9.05275 10.76077 -8.1538 0.70724 -4.46285 -7.74109 12.96164 -0.97355 -22.16138 -32.5407 7.9332 7.33006 16.64681
-0.01229 0.95743 -0.01097 210.92802 0 -4.82335 10.60394 5.94569 -1.41191 -15.02636 -0.64426 -1.99234 60.62395 -16.99157 19.73912 55.24224 16.87798 30.38467 -15.64791 65.35481 18.48738 -37.10796 62.46062 -101.07597 -37.1997 5.73394 -1.88464 9.03511 10.47072 -7.27773 0.52486 -4.27328 -7.34553 11.89251 -0.8892 -21.27742 -31.40856 8.14355 7.51066 16.55711
-0.01443 0.95725 -0.01115 210.9065 0 -4.81929 10.91465 5.98973 -1.4467 -15.73649 -0.48749 -1.94071 60.69252 -17.90195 19.62747 56.65538 16.58382 30.17312 -15.77162 65.09905 19.43143 -35.87171 64.17518 -100.4813 -36.84736 5.66007 -2.43073 8.98429 10.00402 -6.40897 0.34858 -4.13471 -6.76974 10.92858 -0.84622 -20.47312 -30.45292 8.36719 7.68596 16.47513
-0.01658 0.957 -0.0114 210.86378 0 -4.84388 11.25403 6.07537 -1.47147 -16.51325 -0.30974 -1.86222 60.96538 -18.83536 19.6462 57.89939 16.47174 29.52865 -15.89273 65.02795 20.31935 -34.6496 65.72886 -99.8806 -36.43362 5.5842 -3.01355 8.95682 9.56629 -5.46475 0.148 -3.97534 -6.18149 9.95438 -0.80938 -19.62859 -29.58045 8.63986 7.88831 16.42642
-0.01873 0.95685 -0.01138 210.85597 0 -4.8131 11.53208 6.07764 -1.52202 -17.15043 -0.17226 -1.83979 60.78744 -19.74969 19.39616 59.50079 16.17479 29.56538 -16.02342 64.51368 21.3514 -33.34922 67.61576 -99.26403 -36.10988 5.50943 -3.52481 8.89531 9.15941 -4.68365 -0.00221 -3.83537 -5.71607 8.94944 -0.73812 -18.83165 -28.43593 8.79696 8.0334 16.30056
-0.02088 0.957 -0.0107 210.96606 0 -4.62291 11.65627 5.83837 -1.64161 -17.41659 -0.15329 -1.97803 59.4233 -20.56137 18.33613 62.0344 15.18045 31.69779 -16.14411 62.93098 22.76733 -31.92357 70.40234 -98.55794 -36.02388 5.43438 -3.83827 8.72375 8.72317 -4.34306 -0.01244 -3.77234 -5.47975 7.8999 -0.58776 -18.19884 -26.61092 8.65274 8.02422 15.96689
-0.02301 0.95724 -0.00975 211.10969 0 -4.37707 11.71582 5.51689 -1.78567 -17.5394 -0.17459 -2.17123 57.60186 -21.35381 17.01906 64.93676 13.97048 34.54807 -16.28032 60.88948 24.31992 -30.41724 73.5274 -97.85699 -36.04459 5.36237 -4.07786 8.51621 8.30962 -4.16666 0.02793 -3.73255 -5.35517 6.8302 -0.40722 -17.61986 -24.53389 8.39357 7.95692 15.55728
-0.02512 0.95744 -0.00892 211.22924 0 -4.15802 11.79466 5.23864 -1.91651 -17.71766 -0.17445 -2.33481 55.96531 -22.17079 15.86935 67.70907 12.84721 37.08195 -16.43441 58.98646 25.80106 -28.91696 76.51699 -97.20996 -36.05456 5.29379 -4.34775 8.32574 7.90084 -3.9178 0.04464 -3.68321 -5.18711 5.77953 -0.24538 -17.01997 -22.59511 8.18377 7.91405 15.18468
-0.02737 0.95764 -0.00807 211.38564 0 -3.93234 11.91603 4.93473 -2.0574 -17.9366 -0.18656 -2.51825 54.42166 -22.92711 14.50998 70.32925 11.79333 39.55195 -16.48693 57.36964 27.3309 -27.53775 79.43783 -96.32126 -35.90215 5.20433 -4.63243 8.13379 7.44078 -3.66043 0.06404 -3.62639 -5.00267 4.67876 -0.05975 -16.40103 -20.54021 7.98298 7.87932 14.80073
-0.02932 0.95787 -0.0072 211.47282 0 -3.70811 11.93356 4.66615 -2.18238 -18.03724 -0.18362 -2.67319 52.57812 -23.80104 13.52086 73.34575 10.54186 42.32477 -16.75009 55.05362 28.78392 -25.89187 82.57068 -95.93744 -36.11129 5.15928 -4.86823 7.93629 7.08885 -3.45976 0.08996 -3.59156 -4.87312 3.68114 0.08295 -15.83487 -18.67408 7.73831 7.81405 14.42233
-0.03046 0.95819 -0.00637 211.36846 0 -3.49216 11.67918 4.50184 -2.26171 -17.84165 -0.12322 -2.7371 50.00982 -25.02613 13.66592 77.43505 8.71694 45.87372 -17.63057 50.89322 30.04335 -23.51189 86.30626 -96.96327 -37.33201 5.23658 -4.98888 7.72587 7.02131 -3.37312 0.12072 -3.61611 -4.87086 2.9694 0.09307 -15.41745 -17.38407 7.38805 7.67713 14.08257
-0.03128 0.95854 -0.00552 211.19231 0 -3.28125 11.32276 4.37825 -2.32336 -17.53288 -0.04758 -2.77028 47.15805 -26.36489 14.18334 81.89628 6.71136 49.68609 -18.71514 46.05271 31.20998 -20.87157 90.22392 -98.49478 -38.90657 5.35848 -5.06236 7.51205 7.06138 -3.3383 0.15642 -3.66175 -4.91758 2.36431 0.05962 -15.04965 -16.29662 7.00016 7.51186 13.75059
-0.03224 0.95886 -0.00466 211.04362 0 -3.07407 11.01363 4.24497 -2.39009 -17.27888 0.01716 -2.81662 44.44148 -27.63781 14.49847 86.14402 4.8373 53.30634 -19.68037 41.53914 32.38498 -18.36147 93.994 -99.78451 -40.29418 5.45979 -5.15622 7.30362 7.05617 -3.28102 0.19039 -3.69529 -4.93756 1.71371 0.0501 -14.64854 -15.12257 6.63803 7.36053 13.41177
-0.03324 0.95925 -0.00386 210.91653 0 -2.83954 10.69815 4.0722 -2.46981 -17.00555 0.09767 -2.8679 41.67989 -28.97313 14.9447 90.5981 2.74813 57.25535 -20.75832 36.92622 33.7094 -15.79382 98.05381 -101.12455 -41.79545 5.56261 -5.25224 7.07754 7.03739 -3.22442 0.224 -3.73993 -4.97979 1.04858 0.02458 -14.29213 -13.91466 6.23548 7.20245 13.08307
